<?xml version="1.0" encoding="UTF-8"?>
<svg xmlns="http://www.w3.org/2000/svg" xmlns:xlink="http://www.w3.org/1999/xlink" width="px" height="px" viewBox="0 0 762 764" version="1.1">
<g id="surface1">
<path style=" stroke:none;fill-rule:nonzero;fill:rgb(0%,0%,0%);fill-opacity:1;" d="M 355.125 24.4375 C 226.425781 34.332031 113.851562 110.191406 57.375 225.257812 C 39.523438 261.6875 28.125 300.59375 22.726562 344.070312 C 20.773438 359.738281 20.773438 407.863281 22.726562 423.527344 C 30.074219 482.222656 48.601562 533.796875 79.273438 580.871094 C 114.148438 634.316406 164.625 678.996094 221.625 706.878906 C 259.351562 725.246094 297.449219 736.414062 341.25 741.886719 C 350.023438 742.9375 357.75 743.234375 381 743.234375 C 411.824219 743.234375 418.726562 742.710938 442.5 738.664062 C 566.175781 717.597656 670.726562 632.292969 716.625 514.980469 C 727.726562 486.644531 735.148438 456.585938 739.273438 423.527344 C 741.226562 407.863281 741.226562 359.8125 739.273438 344.070312 C 735.898438 317.085938 730.574219 293.246094 722.625 269.484375 C 697.351562 193.699219 647.851562 128.933594 581.25 84.40625 C 533.550781 52.472656 479.925781 32.90625 421.125 25.785156 C 411.148438 24.585938 365.398438 23.6875 355.125 24.4375 Z M 407.175781 49.550781 C 446.175781 52.398438 488.023438 63.492188 522.75 80.058594 L 530.625 83.804688 L 231.375 83.804688 L 239.25 80.058594 C 289.875 55.847656 348.523438 45.203125 407.175781 49.550781 Z M 580.050781 114.164062 C 601.125 129.832031 620.925781 148.421875 637.351562 167.910156 C 642.375 173.910156 646.5 179.007812 646.5 179.304688 C 646.5 179.679688 527.023438 179.90625 381 179.90625 C 234.976562 179.90625 115.5 179.679688 115.5 179.304688 C 115.574219 178.40625 124.726562 167.539062 134.476562 156.816406 C 147.601562 142.277344 162.824219 128.632812 181.5 114.539062 L 190.125 108.019531 L 380.851562 107.945312 L 571.648438 107.945312 Z M 669.375 212.738281 C 677.324219 226.082031 686.851562 245.496094 692.851562 260.636719 C 695.851562 268.132812 698.25 274.582031 698.25 275.03125 C 698.25 275.628906 608.101562 275.855469 380.625 275.855469 L 63 275.855469 L 65.476562 268.882812 C 71.699219 251.644531 82.574219 228.855469 92.550781 212.289062 L 97.648438 203.894531 L 664.125 203.894531 Z M 708.148438 309.214844 C 712.351562 327.652344 716.25 355.089844 716.25 366.707031 L 716.25 371.804688 L 45.75 371.804688 L 45.75 366.332031 C 45.824219 353.964844 49.199219 328.929688 53.25 310.488281 C 54.523438 305.015625 55.5 300.367188 55.5 300.21875 C 55.5 299.992188 201.898438 299.917969 380.773438 299.992188 L 706.125 300.21875 Z M 716.25 401.039062 C 716.25 413.410156 712.351562 441.820312 708.300781 459.132812 L 706.199219 467.753906 L 381.074219 467.605469 L 55.875 467.378906 L 53.851562 458.386719 C 49.5 439.269531 45.75 412.507812 45.75 400.664062 L 45.75 395.792969 L 716.25 395.792969 Z M 697.875 493.390625 C 694.125 505.761719 677.851562 540.542969 668.773438 555.460938 L 664.050781 563.328125 L 97.875 563.328125 L 92.476562 554.335938 C 84.898438 541.816406 74.550781 520.675781 68.699219 505.835938 C 66 499.015625 63.75 493.015625 63.75 492.566406 C 63.75 491.96875 154.351562 491.742188 381.074219 491.742188 L 698.324219 491.742188 Z M 646.5 588.21875 C 646.5 588.59375 642.375 593.6875 637.351562 599.6875 C 620.699219 619.324219 601.125 637.765625 580.050781 653.433594 L 571.648438 659.65625 L 190.351562 659.65625 L 181.875 653.359375 C 164.175781 640.164062 147.449219 625.171875 134.101562 610.332031 C 125.101562 600.4375 115.5 588.964844 115.5 588.140625 C 115.5 587.917969 234.976562 587.691406 381 587.691406 C 527.023438 587.691406 646.5 587.917969 646.5 588.21875 Z M 522.75 687.539062 C 488.398438 703.957031 448.199219 714.675781 407.625 718.125 C 394.125 719.324219 364.949219 719.097656 350.476562 717.75 C 312.074219 714.074219 272.101562 703.28125 239.25 687.539062 L 231.375 683.792969 L 530.625 683.792969 Z M 522.75 687.539062 "/>
</g>
</svg>
