<?xml version="1.0" encoding="UTF-8"?>
<svg xmlns="http://www.w3.org/2000/svg" xmlns:xlink="http://www.w3.org/1999/xlink" width="px" height="px" viewBox="0 0 755 762" version="1.1">
<g id="surface1">
<path style=" stroke:none;fill-rule:nonzero;fill:rgb(0%,0%,0%);fill-opacity:1;" d="M 351.46875 24.449219 C 222.058594 34.574219 109.980469 110.324219 53.265625 226.125 C 35.632812 262.125 24.382812 301.050781 18.980469 344.25 C 17.03125 359.925781 17.03125 408.074219 18.980469 423.75 C 29.632812 509.25 65.492188 582.898438 124.609375 640.949219 C 182.75 697.949219 254.09375 731.851562 337.589844 742.273438 C 346.367188 743.324219 354.09375 743.625 377.351562 743.625 C 400.605469 743.625 408.332031 743.324219 417.109375 742.273438 C 442.015625 739.125 466.546875 733.875 487.628906 727.125 C 615.3125 686.023438 709.988281 577.125 732.492188 445.5 C 736.546875 421.800781 737.070312 414.898438 737.070312 384 C 737.070312 353.101562 736.546875 346.199219 732.492188 322.5 C 714.488281 217.273438 649.820312 124.875 556.574219 71.25 C 514.863281 47.25 468.5 32.101562 417.484375 25.800781 C 408.183594 24.675781 361.371094 23.699219 351.46875 24.449219 Z M 365.347656 384 L 365.347656 717 L 361.746094 715.199219 C 351.992188 710.25 339.691406 697.273438 330.085938 681.824219 C 303.378906 638.699219 283.425781 567 274.648438 481.875 C 270.972656 446.925781 270.445312 434.773438 270.445312 384 C 270.445312 333.226562 270.972656 321.074219 274.648438 286.125 C 286.125 175.5 316.132812 88.949219 353.792969 58.050781 C 356.269531 56.023438 364.222656 51.074219 365.195312 51 C 365.273438 51 365.347656 200.851562 365.347656 384 Z M 402.707031 59.550781 C 439.542969 91.726562 468.800781 177.300781 480.050781 286.125 C 483.726562 321.074219 484.253906 333.226562 484.253906 384 C 484.253906 434.773438 483.726562 446.925781 480.050781 481.875 C 470.375 575.625 446.894531 653.625 416.511719 693.523438 C 410.433594 701.476562 399.707031 711.601562 394.003906 714.601562 L 389.351562 717.074219 L 389.351562 50.925781 L 393.703125 53.25 C 396.105469 54.523438 400.15625 57.375 402.707031 59.550781 Z M 310.882812 70.199219 C 279.300781 118.648438 255.742188 207.675781 247.941406 308.25 C 244.414062 354.523438 244.265625 409.351562 247.566406 455.25 C 255.21875 559.648438 279.675781 651.675781 312.90625 701.023438 C 314.933594 704.023438 316.582031 706.574219 316.582031 706.800781 C 316.582031 708.300781 295.804688 697.574219 285.074219 690.449219 C 271.796875 681.675781 261.519531 673.273438 249.441406 661.125 C 199.554688 611.175781 164.667969 533.175781 153.867188 447.226562 C 150.714844 422.398438 150.414062 417.148438 150.414062 384 C 150.414062 362.851562 150.789062 348.074219 151.390625 342 C 155.066406 305.925781 160.09375 279.148438 168.417969 250.875 C 193.027344 167.550781 239.089844 102.824219 297.078125 70.125 C 303.605469 66.449219 315.984375 60.675781 316.433594 61.050781 C 316.507812 61.199219 314.03125 65.324219 310.882812 70.199219 Z M 448.917969 65.625 C 526.265625 102.824219 586.054688 203.175781 600.835938 320.773438 C 603.984375 345.601562 604.285156 350.925781 604.285156 384 C 604.285156 417.074219 603.984375 422.398438 600.835938 447.226562 C 586.503906 560.773438 531.367188 656.851562 456.871094 698.25 C 449.59375 702.300781 438.714844 707.324219 438.265625 706.875 C 438.117188 706.726562 439.691406 704.175781 441.71875 701.101562 C 471.5 656.925781 493.929688 580.273438 504.132812 487.875 C 507.882812 453.375 509.386719 424.351562 509.386719 384 C 509.386719 343.648438 507.882812 314.699219 504.132812 280.125 C 493.929688 187.726562 471.5 111.074219 441.792969 66.976562 C 439.765625 63.976562 438.117188 61.425781 438.117188 61.199219 C 438.117188 60.601562 441.265625 61.875 448.917969 65.625 Z M 234.585938 87.148438 C 221.832031 99.824219 215.007812 107.550781 205.40625 120.375 C 160.015625 180.898438 132.035156 261.675781 126.035156 349.648438 C 124.984375 364.800781 124.984375 403.199219 126.035156 418.351562 C 132.035156 506.25 160.015625 587.101562 205.40625 647.625 C 215.007812 660.449219 221.832031 668.175781 234.585938 680.773438 C 241.339844 687.523438 246.289062 692.773438 245.539062 692.550781 C 241.789062 691.199219 217.632812 679.199219 210.429688 675 C 159.117188 645.449219 115.753906 602.101562 86.496094 551.25 C 64.292969 512.625 50.414062 471.148438 44.113281 424.875 C 42.609375 413.476562 42.386719 409.125 42.386719 384 C 42.386719 358.875 42.609375 354.523438 44.113281 343.125 C 54.464844 266.324219 86.796875 200.324219 140.210938 146.925781 C 169.84375 117.375 202.328125 94.875 240.0625 77.925781 C 243.589844 76.351562 246.515625 75 246.664062 75 C 246.816406 75 241.339844 80.476562 234.585938 87.148438 Z M 526.488281 83.699219 C 579.980469 110.398438 623.039062 148.199219 656.046875 197.625 C 669.851562 218.324219 679.679688 236.773438 688.53125 258.75 C 709.988281 311.851562 717.488281 370.875 709.988281 427.5 C 697.460938 522.75 644.269531 608.699219 564.675781 662.175781 C 551.621094 671.023438 541.417969 676.875 526.488281 684.300781 C 506.007812 694.5 505.933594 694.5 516.363281 684.675781 C 577.277344 627.148438 617.113281 536.699219 627.617188 432 C 629.265625 415.425781 629.867188 368.773438 628.667969 351.074219 C 622.140625 254.175781 590.78125 169.5 538.042969 106.125 C 534.890625 102.375 526.863281 93.898438 520.113281 87.226562 C 511.035156 78.148438 508.484375 75.300781 510.136719 75.898438 C 511.410156 76.273438 518.761719 79.800781 526.488281 83.699219 Z M 526.488281 83.699219 "/>
</g>
</svg>
